TITLE ""
FILE "Step6_Track74.mp3" MP3
  TRACK 01 AUDIO
    TITLE "Step6_Track74_01"
    INDEX 01 00:00:00
  TRACK 02 AUDIO
    TITLE "Step6_Track74_02"
    INDEX 01 00:00:22
  TRACK 03 AUDIO
    TITLE "Step6_Track74_03"
    INDEX 01 00:02:03
  TRACK 04 AUDIO
    TITLE "Step6_Track74_04"
    INDEX 01 00:02:58
  TRACK 05 AUDIO
    TITLE "Step6_Track74_05"
    INDEX 01 00:03:58
  TRACK 06 AUDIO
    TITLE "Step6_Track74_06"
    INDEX 01 00:04:04
  TRACK 07 AUDIO
    TITLE "Step6_Track74_07"
    INDEX 01 00:05:68
  TRACK 08 AUDIO
    TITLE "Step6_Track74_08"
    INDEX 01 00:06:19
  TRACK 09 AUDIO
    TITLE "Step6_Track74_09"
    INDEX 01 00:07:12
  TRACK 10 AUDIO
    TITLE "Step6_Track74_10"
    INDEX 01 00:07:14
  TRACK 11 AUDIO
    TITLE "Step6_Track74_11"
    INDEX 01 00:08:43
  TRACK 12 AUDIO
    TITLE "Step6_Track74_12"
    INDEX 01 00:08:67
  TRACK 13 AUDIO
    TITLE "Step6_Track74_13"
    INDEX 01 00:09:60
  TRACK 14 AUDIO
    TITLE "Step6_Track74_14"
    INDEX 01 00:09:62
  TRACK 15 AUDIO
    TITLE "Step6_Track74_15"
    INDEX 01 00:11:14
  TRACK 16 AUDIO
    TITLE "Step6_Track74_16"
    INDEX 01 00:11:63
  TRACK 17 AUDIO
    TITLE "Step6_Track74_17"
    INDEX 01 00:12:61
  TRACK 18 AUDIO
    TITLE "Step6_Track74_18"
    INDEX 01 00:13:01
  TRACK 19 AUDIO
    TITLE "Step6_Track74_19"
    INDEX 01 00:14:54
  TRACK 20 AUDIO
    TITLE "Step6_Track74_20"
    INDEX 01 00:15:12
  TRACK 21 AUDIO
    TITLE "Step6_Track74_21"
    INDEX 01 00:16:13
  TRACK 22 AUDIO
    TITLE "Step6_Track74_22"
    INDEX 01 00:16:15
  TRACK 23 AUDIO
    TITLE "Step6_Track74_23"
    INDEX 01 00:17:50
  TRACK 24 AUDIO
    TITLE "Step6_Track74_24"
    INDEX 01 00:18:00
  TRACK 25 AUDIO
    TITLE "Step6_Track74_25"
    INDEX 01 00:18:69
  TRACK 26 AUDIO
    TITLE "Step6_Track74_26"
    INDEX 01 00:18:71
  TRACK 27 AUDIO
    TITLE "Step6_Track74_27"
    INDEX 01 00:20:21
  TRACK 28 AUDIO
    TITLE "Step6_Track74_28"
    INDEX 01 00:21:05
  TRACK 29 AUDIO
    TITLE "Step6_Track74_29"
    INDEX 01 00:22:00
  TRACK 30 AUDIO
    TITLE "Step6_Track74_30"
    INDEX 01 00:22:31
  TRACK 31 AUDIO
    TITLE "Step6_Track74_31"
    INDEX 01 00:25:02
  TRACK 32 AUDIO
    TITLE "Step6_Track74_32"
    INDEX 01 00:25:26
  TRACK 33 AUDIO
    TITLE "Step6_Track74_33"
    INDEX 01 00:26:19
  TRACK 34 AUDIO
    TITLE "Step6_Track74_34"
    INDEX 01 00:26:21
  TRACK 35 AUDIO
    TITLE "Step6_Track74_35"
    INDEX 01 00:27:58
  TRACK 36 AUDIO
    TITLE "Step6_Track74_36"
    INDEX 01 00:28:13
  TRACK 37 AUDIO
    TITLE "Step6_Track74_37"
    INDEX 01 00:29:02
  TRACK 38 AUDIO
    TITLE "Step6_Track74_38"
    INDEX 01 00:29:04
  TRACK 39 AUDIO
    TITLE "Step6_Track74_39"
    INDEX 01 00:30:37
  TRACK 40 AUDIO
    TITLE "Step6_Track74_40"
    INDEX 01 00:31:01
  TRACK 41 AUDIO
    TITLE "Step6_Track74_41"
    INDEX 01 00:32:02
  TRACK 42 AUDIO
    TITLE "Step6_Track74_42"
    INDEX 01 00:32:34
  TRACK 43 AUDIO
    TITLE "Step6_Track74_43"
    INDEX 01 00:34:64
  TRACK 44 AUDIO
    TITLE "Step6_Track74_44"
    INDEX 01 00:35:01
  TRACK 45 AUDIO
    TITLE "Step6_Track74_45"
    INDEX 01 00:35:69
  TRACK 46 AUDIO
    TITLE "Step6_Track74_46"
    INDEX 01 00:36:02
  TRACK 47 AUDIO
    TITLE "Step6_Track74_47"
    INDEX 01 00:37:31
  TRACK 48 AUDIO
    TITLE "Step6_Track74_48"
    INDEX 01 00:37:49
  TRACK 49 AUDIO
    TITLE "Step6_Track74_49"
    INDEX 01 00:38:44
  TRACK 50 AUDIO
    TITLE "Step6_Track74_50"
    INDEX 01 00:38:46
  TRACK 51 AUDIO
    TITLE "Step6_Track74_51"
    INDEX 01 00:40:02
